<?xml version="1.0" encoding="utf-8"?>
<svg width="308.9" height="73.3" viewBox="0 0 308.9 73.3" fill="none" xmlns="http://www.w3.org/2000/svg">
  <defs>
    <clipPath id="clip_path_1">
      <rect width="308.9" height="73.3" />
    </clipPath>
  </defs>
  <g clip-path="url(#clip_path_1)">
    <g transform="translate(0 -0.1)">
      <path d="M36.1 33.1C36.1 33.1 7.7 33.1 7.7 33.1C7.5 33.1 7.4 32.9 7.4 32.8C7.4 32.8 7.4 26.3 7.4 26.3C7.4 26.1 7.5 26 7.7 26C7.7 26 39 22.5 39 22.5C39.3 22.5 39.6 22.2 39.6 21.8C39.6 21.8 39.6 15.9 39.6 15.9C39.6 15.5 39.3 15.2 38.8 15.2C38.8 15.2 7.8 18.6 7.8 18.6C7.6 18.6 7.4 18.5 7.4 18.3C7.4 18.3 7.4 8.5 7.4 8.5C7.4 7.9 7.9 7.4 8.5 7.4C8.5 7.4 39.9 7.4 39.9 7.4C40.3 7.4 40.6 7.1 40.6 6.7C40.6 6.7 40.6 0.7 40.6 0.7C40.6 0.3 40.3 0 39.9 0C39.9 0 7.4 0.1 7.4 0.1C7.4 0.1 4.4 0.1 4.4 0.1C2 0.1 0 2.1 0 4.5C0 4.5 0 7.4 0 7.4L0 33.1L0 40.4C0 40.4 0 72.7 0 72.7C0 73.1 0.3 73.4 0.7 73.4C0.7 73.4 6.7 73.4 6.7 73.4C7.1 73.4 7.4 73.1 7.4 72.7C7.4 72.7 7.4 40.8 7.4 40.8C7.4 40.6 7.6 40.5 7.7 40.5C7.7 40.5 18 40.5 18 40.5C18.2 40.5 18.4 40.7 18.3 40.9C18.3 40.9 15 71.7 15 71.7C15 72.1 15.3 72.5 15.7 72.5C15.7 72.5 21.7 72.5 21.7 72.5C22 72.5 22.4 72.2 22.4 71.9C22.4 71.9 25.8 40.8 25.8 40.8C25.8 40.6 26 40.5 26.1 40.5C26.1 40.5 32.1 40.5 32.1 40.5C32.7 40.5 33.2 41 33.2 41.6C33.2 41.6 33.2 72.8 33.2 72.8C33.2 73.2 33.5 73.5 33.9 73.5C33.9 73.5 39.9 73.5 39.9 73.5C40.3 73.5 40.6 73.2 40.6 72.8C40.6 72.8 40.6 37.5 40.6 37.5C40.6 35.1 38.6 33.1 36.1 33.1C36.1 33.1 36.1 33.1 36.1 33.1Z" fill="#1E0B36" />
      <path d="M18.1999 9.9C17.6999 7.6 15.6999 5.5 12.6999 5.5C9.69991 5.5 7.59991 7.5 6.8999 9.9C6.8999 9.9 18.1999 9.9 18.1999 9.9C18.1999 9.9 18.1999 9.9 18.1999 9.9ZM12.7 0C20.1 0 25.2 5.6 25.2 12.4C25.2 12.4 25.2 13.4 25.2 13.4C25.2 13.6 25 13.8 24.8 13.8C24.8 13.8 6.7 13.8 6.7 13.8C7.2 16.8 9.7 19.3 12.7 19.3C14.8 19.3 16 18.6 16.9 17.9C16.9 17.9 16.9 17.9 16.9 17.9C17.3 17.6 17.6 17.2 17.9 16.7C18 16.6 18.1 16.5 18.2 16.5C18.2 16.5 24.3 16.5 24.3 16.5C24.6 16.5 24.8 16.8 24.7 17.1C24.2 18.4 23.5 19.6 22.6 20.7C20.8 22.8 17.7 24.8 12.7 24.8C5.5 24.8 0 19.3 0 12.4C3.8147e-06 5.6 5.5 0 12.7 0C12.7 0 12.7 0 12.7 0Z" fill="#1E0B36" transform="translate(57.9 28.9)" />
      <path d="M0.400002 0C0.400002 0 6.1 0 6.1 0C6.3 0 6.5 0.200001 6.5 0.4C6.5 0.4 6.5 31.8 6.5 31.8C6.5 32 6.3 32.2 6.1 32.2C6.1 32.2 0.400002 32.2 0.400002 32.2C0.200005 32.2 0 32 0 31.8C0 31.8 0 0.400002 0 0.400002C0 0.200001 0.199997 0 0.400002 0C0.400002 0 0.400002 0 0.400002 0Z" fill="#1E0B36" transform="translate(87 20.9)" />
      <path d="M18.1999 9.9C17.6999 7.6 15.6999 5.5 12.6999 5.5C9.69991 5.5 7.59991 7.5 6.8999 9.9C6.8999 9.9 18.1999 9.9 18.1999 9.9C18.1999 9.9 18.1999 9.9 18.1999 9.9ZM12.7 0C20.1 0 25.2 5.6 25.2 12.4C25.2 12.4 25.2 13.4 25.2 13.4C25.2 13.6 25 13.8 24.8 13.8C24.8 13.8 6.7 13.8 6.7 13.8C7.2 16.8 9.7 19.3 12.7 19.3C14.8 19.3 16 18.6 16.9 17.9C17.3 17.5 17.6 17.1 17.9 16.7C18 16.6 18.1 16.5 18.2 16.5C18.2 16.5 24.3 16.5 24.3 16.5C24.6 16.5 24.8 16.8 24.7 17.1C24.2 18.4 23.5 19.6 22.6 20.7C20.8 22.8 17.7 24.8 12.7 24.8C5.5 24.8 0 19.3 0 12.4C0 5.5 5.5 0 12.7 0C12.7 0 12.7 0 12.7 0Z" fill="#1E0B36" transform="translate(97.3 28.9)" />
      <path d="M0.399994 5L2.99999 5C2.99999 5 2.99999 0.4 2.99999 0.4C2.99999 0.199999 3.19999 0 3.39999 0C3.39999 0 9.10001 0 9.10001 0C9.29999 0 9.49998 0.200001 9.49998 0.4C9.49998 0.4 9.49998 5 9.49998 5C9.49998 5 15.8 5 15.8 5C16 5 16.2 5.2 16.2 5.4C16.2 5.4 16.2 10.1 16.2 10.1C16.2 10.3 16 10.5 15.8 10.5C15.8 10.5 9.49998 10.5 9.49998 10.5C9.49998 10.5 9.49998 20.1 9.49998 20.1C9.49998 21.6 10.7 22.9 12.3 22.9C12.3 22.9 16 22.9 16 22.9C16.2 22.9 16.4 23.1 16.4 23.3C16.4 23.3 16.4 28 16.4 28C16.4 28.2 16.2 28.4 16 28.4C16 28.4 11.1 28.4 11.1 28.4C6 28.4 3 25.4 3 20.1C3 20.1 3 10.5 3 10.5C3 10.5 0.400002 10.5 0.400002 10.5C0.200005 10.5 0 10.3 0 10.1C0 10.1 0 5.4 0 5.4C-7.62939e-06 5.2 0.199989 5 0.399994 5C0.399994 5 0.399994 5 0.399994 5Z" fill="#1E0B36" transform="translate(124 24.6)" />
      <path d="M0.326599 0.499998C0.326599 0.499998 6.0266 0.499998 6.0266 0.499998C6.22659 0.499998 6.42659 0.699999 6.42659 0.899998C6.42659 0.899998 6.42659 3.9 6.42659 3.9C6.42659 3.9 6.62659 3.9 6.62659 3.9C6.92659 3.2 7.32658 2.5 7.92659 2C8.82658 1 10.3266 0 12.7266 0C12.7266 0 15.1266 0 15.1266 0C15.3266 0 15.5266 0.200001 15.5266 0.4C15.5266 0.4 15.5266 5.8 15.5266 5.8C15.5266 6 15.3266 6.2 15.1266 6.2C15.1266 6.2 12.0266 6.2 12.0266 6.2C8.52658 6.2 6.52658 8.2 6.52658 11.5C6.52658 11.5 6.52658 23.5 6.52658 23.5C6.52658 23.7 6.32658 23.9 6.12659 23.9C6.12659 23.9 0.42659 23.9 0.42659 23.9C0.226593 23.9 0.0265961 23.7 0.0265961 23.5C0.0265961 23.5 0.0265961 0.899998 0.0265961 0.899998C-0.07341 0.699999 0.126602 0.499998 0.326599 0.499998C0.326599 0.499998 0.326599 0.499998 0.326599 0.499998Z" fill="#1E0B36" transform="translate(144.473 29.1)" />
      <path d="M13 19.4001C16.5 19.4001 19.2 16.6001 19.2 12.5001C19.2 8.4001 16.4 5.6001 13 5.6001C9.50005 5.6001 6.80005 8.4001 6.80005 12.5001C6.80005 16.6001 9.50005 19.4001 13 19.4001C13 19.4001 13 19.4001 13 19.4001ZM13 0C20.4 0 26 5.5 26 12.4C26 19.3 20.4 24.8 13 24.8C5.5 24.8 0 19.3 0 12.4C0 5.6 5.5 0 13 0C13 0 13 0 13 0Z" fill="#1E0B36" transform="translate(161.1 28.9)" />
      <path d="M0.326584 0.700001C0.326584 0.700001 6.02658 0.700001 6.02658 0.700001C6.22658 0.700001 6.42657 0.900002 6.42657 1.1C6.42657 1.1 6.42657 3.9 6.42657 3.9C6.42657 3.9 6.62657 3.9 6.62657 3.9C7.02657 3.2 7.52657 2.5 8.22658 2C9.32658 1 11.0266 1.90735e-06 13.6266 1.90735e-06C16.6266 1.90735e-06 18.6266 1.1 19.8266 2.2C20.5266 2.8 21.1266 3.6 21.5266 4.4C21.5266 4.4 21.7266 4.4 21.7266 4.4C22.1266 3.6 22.7266 2.9 23.4266 2.2C24.7266 1.1 26.4266 0 29.4266 0C35.0266 0 38.4266 3.4 38.4266 9.9C38.4266 9.9 38.4266 23.7 38.4266 23.7C38.4266 23.9 38.2266 24.1 38.0266 24.1C38.0266 24.1 32.3266 24.1 32.3266 24.1C32.1266 24.1 31.9266 23.9 31.9266 23.7C31.9266 23.7 31.9266 10.6 31.9266 10.6C31.9266 7.1 30.3266 5.5 27.5266 5.5C24.7266 5.5 22.4266 7.8 22.4266 11.5C22.4266 11.5 22.4266 23.7 22.4266 23.7C22.4266 23.9 22.2266 24.1 22.0266 24.1C22.0266 24.1 16.3266 24.1 16.3266 24.1C16.1266 24.1 15.9266 23.9 15.9266 23.7C15.9266 23.7 15.9266 10.6 15.9266 10.6C15.9266 7.1 14.3266 5.5 11.5266 5.5C8.72659 5.5 6.42659 7.8 6.42659 11.5C6.42659 11.5 6.42659 23.7 6.42659 23.7C6.42659 23.9 6.22659 24.1 6.0266 24.1C6.0266 24.1 0.42659 24.1 0.42659 24.1C0.226593 24.1 0.0265961 23.9 0.0265961 23.7C0.0265961 23.7 0.0265961 1.1 0.0265961 1.1C-0.07341 0.900002 0.126587 0.700001 0.326584 0.700001C0.326584 0.700001 0.326584 0.700001 0.326584 0.700001Z" fill="#1E0B36" transform="translate(190.574 28.9)" />
      <path d="M0.899994 9.90015C0.899994 9.90015 6.59999 9.90015 6.59999 9.90015C6.79999 9.90015 6.99998 10.1001 6.99998 10.3001C6.99998 10.3001 6.99998 32.9001 6.99998 32.9001C6.99998 33.1001 6.79999 33.3001 6.59999 33.3001C6.59999 33.3001 0.899994 33.3001 0.899994 33.3001C0.699997 33.3001 0.5 33.1001 0.5 32.9001C0.5 32.9001 0.5 10.3001 0.5 10.3001C0.499985 10.1001 0.699982 9.90015 0.899994 9.90015C0.899994 9.90015 0.899994 9.90015 0.899994 9.90015ZM3.7 0C5.8 0 7.39999 1.6 7.39999 3.4C7.39999 5.2 5.79999 6.8 3.7 6.8C1.59999 6.8 0 5.2 0 3.4C0 1.6 1.7 0 3.7 0C3.7 0 3.7 0 3.7 0Z" fill="#1E0B36" transform="translate(233.2 19.7)" />
      <path d="M12.6 27.4001C16.1 27.4001 18.6 24.9001 18.6 20.5001C18.6 16.1001 16.1 13.6001 12.6 13.6001C9.30005 13.6001 6.80005 16.1001 6.80005 20.5001C6.80006 24.9001 9.30006 27.4001 12.6 27.4001C12.6 27.4001 12.6 27.4001 12.6 27.4001ZM10.9 8C13.5 8 15.3 8.9 16.5 9.8C17.2 10.4 17.8 10.9 18.3 11.6C18.3 11.6 18.5 11.6 18.5 11.6C18.5 11.6 18.5 0.4 18.5 0.4C18.5 0.199999 18.7 0 18.9 0C18.9 0 24.6 0 24.6 0C24.8 0 25 0.200001 25 0.4C25 0.4 25 31.8 25 31.8C25 32 24.8 32.2 24.6 32.2C24.6 32.2 18.9 32.2 18.9 32.2C18.7 32.2 18.5 32 18.5 31.8C18.5 31.8 18.5 29.2 18.5 29.2C18.5 29.2 18.3 29.2 18.3 29.2C17.8 29.9 17.2 30.5 16.5 31C15.2 31.9 13.5 32.8 10.9 32.8C4.89999 32.8 0 28 0 20.4C0.100006 12.9 4.90001 8 10.9 8C10.9 8 10.9 8 10.9 8Z" fill="#1E0B36" transform="translate(243.8 20.9)" />
      <path d="M0.899994 9.90015C0.899994 9.90015 6.60001 9.90015 6.60001 9.90015C6.80002 9.90015 7 10.1001 7 10.3001C7 10.3001 7 32.9001 7 32.9001C7 33.1001 6.79999 33.3001 6.60001 33.3001C6.60001 33.3001 0.899994 33.3001 0.899994 33.3001C0.699982 33.3001 0.5 33.1001 0.5 32.9001C0.5 32.9001 0.5 10.3001 0.5 10.3001C0.499969 10.1001 0.699982 9.90015 0.899994 9.90015C0.899994 9.90015 0.899994 9.90015 0.899994 9.90015ZM3.70001 0C5.80002 0 7.40002 1.6 7.40002 3.4C7.40002 5.2 5.80002 6.8 3.70001 6.8C1.60001 6.8 0 5.2 0 3.4C0 1.6 1.60001 0 3.70001 0C3.70001 0 3.70001 0 3.70001 0Z" fill="#1E0B36" transform="translate(273.3 19.7)" />
      <path d="M12.4999 19.4001C15.9999 19.4001 18.4999 16.9001 18.4999 12.5001C18.4999 8.1001 15.9999 5.6001 12.4999 5.6001C9.19995 5.6001 6.69995 8.1001 6.69995 12.5001C6.69995 16.9001 9.29996 19.4001 12.4999 19.4001C12.4999 19.4001 12.4999 19.4001 12.4999 19.4001ZM10.9 0C13.5 0 15.3 0.9 16.5 1.8C17.2 2.4 17.8 2.9 18.3 3.6C18.3 3.6 18.5 3.6 18.5 3.6C18.5 3.6 18.5 0.999998 18.5 0.999998C18.5 0.799997 18.7 0.599998 18.9 0.599998C18.9 0.599998 24.6 0.599998 24.6 0.599998C24.8 0.599998 25 0.799999 25 0.999998C25 0.999998 25 23.6 25 23.6C25 23.8 24.8 24 24.6 24C24.6 24 18.9 24 18.9 24C18.7 24 18.5 23.8 18.5 23.6C18.5 23.6 18.5 21.2 18.5 21.2C18.5 21.2 18.3 21.2 18.3 21.2C17.8 21.9 17.2 22.5 16.5 23C15.2 23.9 13.5 24.8 10.9 24.8C4.89999 24.8 0 20 0 12.4C0.100006 4.9 4.89999 0 10.9 0C10.9 0 10.9 0 10.9 0Z" fill="#1E0B36" transform="translate(283.9 28.9)" />
    </g>
  </g>
</svg>