<?xml version="1.0" encoding="utf-8"?>
<svg width="398.169" height="73" viewBox="0 0 398.169 73" fill="none" xmlns="http://www.w3.org/2000/svg">
  <g>
    <path d="M33.7304 6.54101C33.7304 6.54101 26.5058 6.54101 26.5058 6.54101C19.8431 6.54101 14.3883 10.474 14.3883 14.0653C14.3883 14.0653 14.3883 32.7238 14.3883 32.7238L0 32.7238C0 32.7238 0 12.4593 0 12.4593C0 5.5999 10.3945 0 23.1113 0C23.1113 0 44.3496 0 44.3496 0C57.0618 0 67.4609 5.60458 67.4609 12.4593C67.4609 12.4593 67.4609 32.7238 67.4609 32.7238L53.0726 32.7238C53.0726 32.7238 53.0726 14.0606 53.0726 14.0606C53.0726 10.474 47.6225 6.53633 40.955 6.53633C40.955 6.53633 33.7304 6.53633 33.7304 6.53633L33.7304 6.54101Z" fill="#1E0B36" fill-rule="evenodd" transform="translate(330.708 20.171)" />
    <path d="M383.785 42.0225L398.084 42.0225L398.084 51.3775L383.785 51.3775L383.785 42.0225ZM0 0L14.2994 0L14.2994 32.7285L0 32.7285L0 0Z" fill="#1E0B36" transform="translate(0 20.166)" />
    <path d="M33.7305 6.54101C33.7305 6.54101 26.5059 6.54101 26.5059 6.54101C19.8431 6.54101 14.3884 10.474 14.3884 14.0653C14.3884 14.0653 14.3884 32.7238 14.3884 32.7238L0 32.7238C0 32.7238 0 12.4593 0 12.4593C0 5.5999 10.3945 0 23.116 0C23.116 0 44.3544 0 44.3544 0C57.0712 0 67.4656 5.60458 67.4656 12.4593C67.4656 12.4593 67.4656 32.7238 67.4656 32.7238L53.0773 32.7238C53.0773 32.7238 53.0773 14.0606 53.0773 14.0606C53.0773 10.474 47.6272 6.53633 40.9598 6.53633C40.9598 6.53633 33.7352 6.53633 33.7352 6.53633L33.7305 6.54101Z" fill="#1E0B36" fill-rule="evenodd" transform="translate(28.599 20.171)" />
    <path d="M0 0L14.2994 0L14.2994 9.35501L0 9.35501L0 0Z" fill="#1E0B36" transform="translate(185.574 1.451)" />
    <path d="M0 0L14.2994 0L14.2994 32.7285L0 32.7285L0 0Z" fill="#1E0B36" transform="translate(185.579 20.166)" />
    <path d="M33.5853 32.7332C33.5853 32.7332 43.7035 32.7332 43.7035 32.7332C47.7583 32.6676 50.9375 31.3191 52.4077 28.6456C52.4077 28.6456 62.7179 9.90282 62.7179 9.90282C62.8911 9.58912 63.0363 9.26137 63.1533 8.92425C63.1533 8.92425 68.0602 0 68.0602 0C68.0602 0 51.5743 0 51.5743 0C47.4352 7.61324 43.2821 15.292 38.7919 22.6571C37.2562 25.1808 36.7879 26.1734 34.4843 26.1875C34.4843 26.1875 33.5806 26.1875 33.5806 26.1875C31.277 26.1781 30.8088 25.1808 29.273 22.6571C24.7828 15.292 20.6297 7.61792 16.4907 0C16.4907 0 0 0 0 0C0 0 4.90693 8.92425 4.90693 8.92425C5.02866 9.26136 5.16913 9.58912 5.34237 9.90282C5.34237 9.90282 15.6572 28.6456 15.6572 28.6456C17.1274 31.3191 20.3066 32.6676 24.3614 32.7332C28.4162 32.7987 24.647 32.7332 24.647 32.7332C24.647 32.7332 33.5713 32.7332 33.5713 32.7332L33.5853 32.7332ZM182.011 6.55029C182.011 6.55029 174.786 6.55029 174.786 6.55029C168.124 6.55029 162.669 10.4786 162.669 14.0699C162.669 14.0699 162.669 18.6631 162.669 18.6631C162.669 22.2543 168.124 26.1874 174.786 26.1874C174.786 26.1874 189.231 26.1874 189.231 26.1874C195.898 26.1874 201.353 22.259 201.353 18.6631C201.353 18.6631 201.353 14.0699 201.353 14.0699C201.353 10.4786 195.898 6.55029 189.231 6.55029C189.231 6.55029 182.006 6.55029 182.006 6.55029L182.011 6.55029ZM148.276 16.3691C148.276 16.3691 148.276 12.4689 148.276 12.4689C148.276 5.61414 158.675 0.00488281 171.392 0.00488281C171.392 0.00488281 192.626 0.00488281 192.626 0.00488281C205.338 0.00488281 215.737 5.61414 215.737 12.4689C215.737 12.4689 215.737 20.2694 215.737 20.2694C215.737 27.1241 205.338 32.7334 192.626 32.7334C192.626 32.7334 171.392 32.7334 171.392 32.7334C158.68 32.7334 148.276 27.1241 148.276 20.2694C148.276 20.2694 148.276 16.3691 148.276 16.3691L148.276 16.3691ZM141.126 6.55029C141.126 6.55029 133.901 6.55029 133.901 6.55029C127.234 6.55029 121.788 10.4833 121.788 14.0746C121.788 14.0746 121.788 32.7331 121.788 32.7331L107.391 32.7331C107.391 32.7331 107.391 12.4686 107.391 12.4686C107.391 5.60917 117.794 0.00927734 130.511 0.00927734C130.511 0.00927734 141.126 0.00927734 141.126 0.00927734L141.126 6.55497L141.126 6.55029Z" fill="#1E0B36" fill-rule="evenodd" transform="translate(106.782 20.162)" />
  </g>
</svg>