<?xml version="1.0" encoding="utf-8"?>
<svg width="308" height="121.215" viewBox="0 0 308 121.215" fill="none" xmlns="http://www.w3.org/2000/svg">
  <defs>
    <linearGradient id="gradient_1" gradientUnits="userSpaceOnUse" x1="249.64" y1="2.586" x2="-0" y2="2.586">
      <stop offset="0" stop-color="#000000" stop-opacity="0" />
      <stop offset="1" stop-color="#221E1F" />
    </linearGradient>
    <linearGradient id="gradient_2" gradientUnits="userSpaceOnUse" x1="1.386" y1="23.472" x2="2.548" y2="114.192">
      <stop offset="0" stop-color="#000000" />
      <stop offset="1" stop-color="#000000" stop-opacity="0" />
    </linearGradient>
  </defs>
  <g>
    <g transform="translate(3.432 3.431)">
      <path d="M244.622 0L0 0.157828L0.0140565 5.17255L249.64 5.01114L244.622 0L244.622 0Z" fill="url(#gradient_1)" transform="scale(1 1)" />
      <path d="M5.01811 5.01114L5.09627 114.188L0.0747213 114.192L0 0L5.01811 5.01114L5.01811 5.01114Z" fill="url(#gradient_2)" transform="matrix(1 0 0 1 0 0.161)" />
      <path d="M26.6487 27.5356C26.6533 32.7127 25.2572 41.1653 13.256 41.1709C6.54613 41.1786 0.0119019 37.5173 0 28.7353C0 28.7353 0.00360107 25.2405 0.00360107 25.2405L8.00431 25.238C8.00431 25.238 8.00126 27.0398 8.00126 27.0398C8.00879 30.9303 8.96796 33.7444 13.138 33.7378C17.8134 33.7342 17.8076 29.9683 17.8061 27.1455C17.8061 27.1455 17.7952 0.0012207 17.7952 0.0012207L26.632 0L26.6487 27.5356C26.6487 27.5356 26.6487 27.5356 26.6487 27.5356Z" fill="#1E0B36" transform="translate(40.622 45.249)" />
      <path d="M28.5548 14.4715C27.9916 10.4722 24.1677 7.43414 19.7703 7.43869C11.8178 7.44568 8.8359 14.2011 8.84505 21.2429C8.84386 27.9416 11.8395 34.7018 19.782 34.6977C25.1904 34.6954 28.2338 30.9725 28.9011 25.6819C28.9011 25.6819 37.4757 25.6773 37.4757 25.6773C36.5772 35.697 29.6455 42.1241 19.7894 42.1282C7.33632 42.1416 0.00211334 32.8508 7.62939e-06 21.2492C-0.00932312 9.31252 7.30696 0.00976563 19.7578 0C28.6025 -0.00243378 36.0441 5.16958 37.1259 14.4627C37.1259 14.4627 28.5548 14.4715 28.5548 14.4715C28.5548 14.4715 28.5548 14.4715 28.5548 14.4715Z" fill="#1E0B36" transform="matrix(1 0 0 1 70.713 44.267)" />
      <path d="M8.85254 7.43311C8.85254 7.43311 15.1549 7.43746 15.1549 7.43746C23.9517 7.42661 26.7705 12.6013 26.7754 20.7177C26.7802 29.6156 21.8843 32.7747 16.7562 32.7744C16.7562 32.7744 8.87151 32.7839 8.87151 32.7839L8.85254 7.43311L8.85254 7.43311ZM0.0230408 40.2119C0.0230408 40.2119 17.384 40.2052 17.384 40.2052C29.6653 40.1988 35.6251 31.5241 35.6183 19.8696C35.6105 6.51785 27.776 -0.0112038 17.3572 7.62939e-06C17.3572 7.62939e-06 0 0.00902557 0 0.00902557L0.0230408 40.2119L0.0230408 40.2119Z" fill="#1E0B36" transform="translate(111.322 45.207)" />
      <path d="M7.99536 12.2337C8.11131 9.97804 9.57089 6.03752 14.6472 6.03101C18.5252 6.02793 20.2734 8.16812 21.0139 12.2251C21.0139 12.2251 7.99536 12.2337 7.99536 12.2337C7.99536 12.2337 7.99536 12.2337 7.99536 12.2337ZM29.0146 17.2849C29.5729 8.3333 24.7817 -0.00388718 14.8615 0C6.01532 0.0178223 -0.0035553 6.66331 0 15.39C0.00566101 24.4026 5.69876 30.708 14.8821 30.7026C21.4771 30.6976 26.2655 27.7694 28.5103 20.8919C28.5103 20.8919 21.4682 20.8955 21.4682 20.8955C20.9592 22.7 18.3726 24.6775 15.1661 24.6741C10.7102 24.6808 8.22932 22.3704 7.99881 17.3002C7.99881 17.3002 29.0146 17.2849 29.0146 17.2849C29.0146 17.2849 29.0146 17.2849 29.0146 17.2849Z" fill="#1E0B36" transform="translate(149.092 55.481)" />
      <path d="M20.7291 11.0434C20.2219 7.76852 18.137 6.02226 14.8152 6.02537C9.68016 6.03605 7.99461 11.2149 7.99973 15.5018C8.00301 19.6641 9.64305 24.6769 14.6552 24.6701C18.37 24.6653 20.5144 22.3057 21.018 18.7473C21.018 18.7473 28.7345 18.7471 28.7345 18.7471C27.7231 26.4643 22.3785 30.6872 14.7118 30.6959C5.92299 30.7036 0.00354004 24.509 0 15.7823C-0.00424194 6.71341 5.39801 0.00774765 14.8655 7.62939e-06C21.7368 -0.00802612 28.0486 3.59932 28.5598 11.0287C28.5598 11.0287 20.7291 11.0434 20.7291 11.0434C20.7291 11.0434 20.7291 11.0434 20.7291 11.0434Z" fill="#1E0B36" transform="matrix(1 0 0 1 180.195 55.464)" />
      <path d="M19.3814 18.6375C19.3794 20.3868 19.1581 25.3405 12.9075 25.3449C10.3131 25.3467 8.004 24.6135 8.00391 21.6315C8.00223 18.7076 10.2571 17.8534 12.7324 17.3427C15.2095 16.8943 18.0253 16.8337 19.3794 15.6553C19.3794 15.6553 19.3814 18.6375 19.3814 18.6375C19.3814 18.6375 19.3814 18.6375 19.3814 18.6375ZM8.8974 9.74888C9.17433 6.59283 11.147 5.35035 14.1868 5.34784C17.0062 5.3517 19.3722 5.85313 19.3726 9.28426C19.3726 12.5559 14.8066 12.389 9.91026 13.1259C4.95137 13.8045 -0.00689697 15.3812 0 21.9737C0.00158691 27.9437 4.39897 30.6957 9.92203 30.6945C13.4635 30.6927 17.1885 29.7362 19.7243 27.0831C19.7793 28.0448 20.0022 28.9989 20.2868 29.8967C20.2868 29.8967 28.4006 29.8913 28.4006 29.8913C27.6694 28.7181 27.3893 26.0654 27.3846 23.4192C27.3846 23.4192 27.3778 8.26751 27.3778 8.26751C27.3688 1.28593 20.3828 -0.00373077 14.5775 7.62939e-06C8.04523 0.00117493 1.33891 2.25451 0.894943 9.74924C0.894943 9.74924 8.8974 9.74888 8.8974 9.74888C8.8974 9.74888 8.8974 9.74888 8.8974 9.74888Z" fill="#1E0B36" transform="translate(210.578 55.449)" />
      <path d="M27.3453 29.1161L19.7367 29.1264L19.739 25.0696C19.739 25.0696 19.5604 25.0663 19.5604 25.0663C17.5397 28.3396 14.0463 29.9108 10.6676 29.9182C2.16356 29.9178 0.0129089 25.1425 0.0103302 17.9283C0.0103302 17.9283 0 0.0158958 0 0.0158958L7.9995 0.0055275C7.9995 0.0055275 8.0173 16.4608 8.0173 16.4608C8.01627 21.2447 9.41626 23.6125 13.143 23.6048C17.4797 23.6043 19.3402 21.1829 19.3314 15.2686C19.3314 15.2686 19.3276 0.00245285 19.3276 0.00245285L27.3283 0L27.3453 29.1161L27.3453 29.1161Z" fill="#1E0B36" transform="matrix(1 0 0 1 242.32 56.207)" />
      <path d="M10.4619 13.8061L0.879364 0.0127296L10.0061 0.00970078L15.1391 7.61132L20.2041 0.00873947L29.0435 0L19.4839 13.6358L30.2487 29.1174L21.1254 29.1247L15.0367 19.9476L8.9549 29.1317L0 29.1277L10.4619 13.8061L10.4619 13.8061Z" fill="#1E0B36" transform="matrix(1 0 0 1 270.888 56.188)" />
    </g>
  </g>
</svg>