<?xml version="1.0" encoding="utf-8"?>
<svg width="71.823" height="71.823" viewBox="0 0 71.823 71.823" fill="none" xmlns="http://www.w3.org/2000/svg">
  <g>
    <path d="M0 6.73338C0 3.01476 3.01476 0 6.73338 0C10.452 0 13.4668 3.01476 13.4668 6.73338C13.4668 10.452 10.452 13.4668 6.73338 13.4668C3.01476 13.4668 0 10.452 0 6.73338Z" fill="#1E0B36" transform="translate(29.178 29.178)" />
    <path d="M0 23.9409C0 28.847 1.27174 30.4992 3.81525 33.8036C8.89392 40.4014 17.4113 47.8818 29.9261 47.8818C42.4409 47.8818 50.9582 40.4014 56.0369 33.8036C58.5804 30.4992 59.8522 28.847 59.8522 23.9409C59.8522 19.0348 58.5804 17.3827 56.0369 14.0782C50.9582 7.48021 42.4409 0 29.9261 0C17.4113 0 8.89392 7.48021 3.81525 14.0782C1.27174 17.3827 0 19.0348 0 23.9409ZM29.9261 12.7186C23.7282 12.7186 18.7039 17.743 18.7039 23.9409C18.7039 30.1389 23.7282 35.1632 29.9261 35.1632C36.1241 35.1632 41.1484 30.1389 41.1484 23.9409C41.1484 17.743 36.1241 12.7186 29.9261 12.7186Z" fill="#1E0B36" fill-rule="evenodd" transform="translate(5.985 11.97)" />
  </g>
</svg>