<?xml version="1.0" encoding="utf-8"?>
<svg width="72.873" height="72.873" viewBox="0 0 72.873 72.873" fill="none" xmlns="http://www.w3.org/2000/svg">
  <g transform="scale(1 1)">
    <path d="M36.2088 10.4847C35.9811 9.57382 35.0702 9.11837 34.1593 9.11837C34.1593 9.11837 27.3274 9.11837 27.3274 9.11837C27.3274 9.11837 27.3274 2.28651 27.3274 2.28651C27.3274 1.3756 26.872 0.464684 25.9611 0.236956C25.0501 -0.218501 24.1392 0.00922728 23.456 0.692413C23.456 0.692413 14.3469 9.80155 14.3469 9.80155C13.8914 10.257 13.6637 10.7125 13.6637 11.3957C13.6637 11.3957 13.6637 19.5939 13.6637 19.5939C13.6637 19.5939 0.683186 32.5744 0.683186 32.5744C-0.227726 33.4853 -0.227726 34.8517 0.683186 35.7626C1.13864 36.2181 1.82183 36.4458 2.27729 36.4458C2.73274 36.4458 3.41593 36.2181 3.87139 35.7626C3.87139 35.7626 16.8519 22.7821 16.8519 22.7821C16.8519 22.7821 25.0501 22.7821 25.0501 22.7821C25.7333 22.7821 26.1888 22.5544 26.6442 22.0989C26.6442 22.0989 35.7534 12.9898 35.7534 12.9898C36.4366 12.3066 36.6643 11.3957 36.2088 10.4847C36.2088 10.4847 36.2088 10.4847 36.2088 10.4847Z" fill="#1E0B36" transform="matrix(1 0 0 1 34.164 2.27)" />
    <path d="M16.1687 16.1687C15.0301 17.5351 13.2082 18.2183 11.3864 18.2183C9.5646 18.2183 7.74277 17.5351 6.60412 16.1687C3.87138 13.436 3.87138 9.10914 6.60412 6.60413C6.60412 6.60413 12.9805 0.22773 12.9805 0.22773C12.5251 0 11.8419 0 11.3864 0C5.01003 0 0 5.01003 0 11.3864C0 17.7628 5.01003 22.7729 11.3864 22.7729C17.7628 22.7729 22.7728 17.7628 22.7728 11.3864C22.7728 10.931 22.7728 10.2478 22.5451 9.79233C22.5451 9.79233 16.1687 16.1687 16.1687 16.1687C16.1687 16.1687 16.1687 16.1687 16.1687 16.1687Z" fill="#1E0B36" transform="translate(25.054 25.052)" />
    <path d="M59.4371 23.0006C58.2985 24.367 56.4767 25.0501 54.6548 25.0501C54.6548 25.0501 48.2784 25.0501 48.2784 25.0501C48.2784 25.0501 46.6843 26.6442 46.6843 26.6442C47.3675 28.2383 47.5953 30.0602 47.5953 31.882C47.5953 40.7634 40.5357 47.823 31.6543 47.823C22.7728 47.823 15.7133 40.7634 15.7133 31.882C15.7133 23.0006 22.7728 15.941 31.6543 15.941C33.4761 15.941 35.2979 16.3965 36.892 16.8519C36.892 16.8519 38.7138 15.4855 38.7138 15.4855C38.7138 15.4855 38.7138 9.10914 38.7138 9.10914C38.7138 7.28731 39.397 5.46549 40.7634 4.32684C40.7634 4.32684 43.0407 2.04956 43.0407 2.04956C39.397 0.683186 35.7534 0 31.882 0C14.3469 0 0 14.3469 0 31.882C0 49.4171 14.3469 63.764 31.882 63.764C49.4171 63.764 63.764 49.4171 63.764 31.882C63.764 28.0106 63.0808 24.367 61.7144 20.7233C61.7144 20.7233 59.4371 23.0006 59.4371 23.0006C59.4371 23.0006 59.4371 23.0006 59.4371 23.0006Z" fill="#1E0B36" transform="translate(4.559 4.556)" />
  </g>
</svg>