<?xml version="1.0" encoding="utf-8"?>
<svg width="50" height="50" viewBox="0 0 50 50" fill="none" xmlns="http://www.w3.org/2000/svg">
  <g>
    <path d="M25 0L25 0C38.809 0 50 11.191 50 25L50 25C50 38.809 38.809 50 25 50L25 50C11.191 50 0 38.809 0 25L0 25C0 11.191 11.191 0 25 0L25 0Z" fill="#1E0B36" transform="scale(1 1)" />
    <g transform="matrix(1 0 0 1 15 15)">
      <path d="M14.1445 5.97397C15.8685 6.91153 15.8685 9.33847 14.1445 10.276C14.1445 10.276 3.73475 15.9368 3.73475 15.9368C2.05916 16.848 0 15.662 0 13.7858C0 13.7858 0 2.46423 0 2.46423C0 0.58799 2.05916 -0.597984 3.73475 0.313202C3.73475 0.313202 14.1445 5.97397 14.1445 5.97397Z" fill="#C6FF33" transform="matrix(1 0 0 1 3.25 1.623)" />
    </g>
  </g>
</svg>