<?xml version="1.0" encoding="utf-8"?>
<svg width="749.115" height="119.204" viewBox="0 0 749.115 119.204" fill="none" xmlns="http://www.w3.org/2000/svg">
  <defs>
    <clipPath id="clip_path_1">
      <rect width="749.115" height="119.204" />
    </clipPath>
  </defs>
  <g clip-path="url(#clip_path_1)">
    <path d="M737.397 55.9836C732.658 55.9836 728.385 53.1288 726.571 48.7502C724.758 44.3717 725.76 39.3318 729.111 35.9807C732.463 32.6295 737.503 31.627 741.881 33.4406C746.26 35.2543 749.114 39.5269 749.114 44.2662C749.114 50.7375 743.868 55.9836 737.397 55.9836C737.397 55.9836 737.397 55.9836 737.397 55.9836ZM737.397 33.7613C733.143 33.7095 729.278 36.2327 727.613 40.149C725.949 44.0653 726.815 48.5989 729.805 51.6261C732.796 54.6534 737.319 55.5747 741.255 53.9585C745.191 52.3423 747.762 48.5086 747.762 44.2534C747.749 38.514 743.136 33.8449 737.397 33.7613C737.397 33.7613 737.397 33.7613 737.397 33.7613ZM740.511 50.4184L737.307 45.1468L735.214 45.1468L735.214 50.4184L733.759 50.4184L733.759 37.7563C733.759 37.7563 737.907 37.7563 737.907 37.7563C738.938 37.7044 739.946 38.0708 740.703 38.7724C741.46 39.4741 741.902 40.4516 741.928 41.4835C741.921 43.2168 740.683 44.7007 738.979 45.0191C738.979 45.0191 742.247 50.4184 742.247 50.4184L740.511 50.4184ZM737.689 39.1476L735.136 39.1476L735.136 43.781C735.136 43.781 737.689 43.781 737.689 43.781C738.596 43.9162 739.498 43.5078 739.996 42.7369C740.493 41.966 740.493 40.9753 739.996 40.2044C739.498 39.4335 738.596 39.0251 737.689 39.1604C737.689 39.1604 737.689 39.1476 737.689 39.1476ZM569.523 32.842C569.128 32.842 569 32.9697 565.465 33.1101C561.929 33.2505 554.947 33.3909 541.021 33.3909C541.021 33.3909 524.109 33.3909 524.109 33.3909C510.183 33.3909 503.303 33.2633 499.665 33.1101C496.028 32.9569 496.002 32.842 495.606 32.842C493.985 32.842 493.985 33.927 493.985 37.0287C493.985 37.0287 493.985 49.4609 493.985 49.4609C493.985 50.1374 493.985 51.7585 495.338 51.7585C496.691 51.7585 497.087 51.2096 499.525 46.2189C501.108 42.7598 504.299 37.7562 522.666 37.5903C524.568 37.6541 525.372 38.0881 525.372 41.0877C525.372 41.0877 525.372 103.887 525.372 103.887C525.372 109.159 525.372 112.822 518.607 113.205C515.774 113.473 513.897 113.614 513.897 115.503C513.897 117.392 515.646 117.519 516.731 117.519C519.284 117.519 530.236 116.983 532.533 116.983C537.001 116.983 544.021 117.519 548.475 117.519C549.56 117.519 551.309 117.519 551.309 115.503C551.309 113.486 549.42 113.333 546.574 113.205C539.821 112.797 539.821 109.146 539.821 103.619C539.821 103.619 539.821 42.0322 539.821 42.0322C539.821 38.5221 540.255 37.7818 544.199 37.6158C561.023 38.0753 564.073 42.8619 565.605 46.2189C568.043 51.2096 568.311 51.7585 569.792 51.7585C571.272 51.7585 571.145 50.1374 571.145 49.4609C571.145 49.4609 571.145 37.0159 571.145 37.0159C571.145 33.927 571.145 32.842 569.524 32.842C569.524 32.842 569.523 32.842 569.523 32.842ZM423.514 96.0501C422.238 96.0501 422.033 96.5862 419.596 101.309C413.66 112.797 405.287 112.797 399.339 112.797C387.991 112.797 385.158 111.316 385.158 101.717C385.158 101.717 385.158 78.4994 385.158 78.4994C385.158 74.4532 386.23 74.4532 392.714 74.4532C403.794 74.4532 407.585 74.5808 410.418 84.9964C411.095 87.5492 411.899 88.2385 412.971 88.2385C414.592 88.2385 414.592 86.3494 414.592 85.5325C414.592 84.4475 414.184 79.7248 414.184 78.7802C414.184 75.8062 415.128 61.8933 415.128 60.017C415.128 58.5363 414.452 58.1151 413.647 58.1151C412.843 58.1151 412.294 58.3959 411.618 60.1446C409.18 67.3053 407.98 70.2666 392.982 70.2666C385.158 70.2666 385.158 69.1816 385.158 64.8673C385.158 64.8673 385.158 45.2616 385.158 45.2616C385.158 38.5094 385.694 37.6031 392.446 37.6031C411.592 37.6031 414.86 42.7088 416.494 46.2445C418.932 51.2352 419.2 51.7841 420.68 51.7841C422.161 51.7841 422.033 50.163 422.033 49.4865C422.033 49.4865 422.033 37.016 422.033 37.016C422.033 33.9143 422.033 32.8293 420.412 32.8293C420.004 32.8293 419.876 32.957 416.366 33.0974C412.856 33.2378 405.823 33.3782 391.923 33.3782C391.923 33.3782 385.477 33.3782 385.477 33.3782C373.989 33.3782 368.182 33.2506 365.22 33.0974C364.089 33.0708 362.959 32.9813 361.838 32.8293C360.893 32.8293 359.132 32.8293 359.132 34.7312C359.132 36.6331 361.034 36.8883 363.995 37.016C370.747 37.4244 370.747 41.0622 370.747 46.6019C370.747 46.6019 370.747 103.619 370.747 103.619C370.747 109.159 370.747 112.809 363.995 113.205C361.161 113.473 359.132 113.614 359.132 115.503C359.132 117.392 360.893 117.519 361.965 117.519C363.038 117.519 363.995 117.379 366.165 117.251C368.335 117.124 371.705 116.983 377.244 116.983C377.244 116.983 378.852 116.983 378.852 116.983C379.669 116.983 386.013 117.111 393.723 117.251C401.432 117.392 411.005 117.519 417.885 117.519C421.816 117.519 423.157 116.039 423.284 113.46C423.693 108.47 425.186 99.8155 425.186 98.0669C425.135 97.2755 424.74 96.0501 423.514 96.0501C423.514 96.0501 423.514 96.0501 423.514 96.0501ZM643.964 96.0501C642.687 96.0501 642.483 96.5862 640.045 101.309C634.11 112.797 625.736 112.797 619.788 112.797C608.441 112.797 605.607 111.316 605.607 101.717C605.607 101.717 605.607 78.4994 605.607 78.4994C605.607 74.4532 606.679 74.4532 613.164 74.4532C624.243 74.4532 628.034 74.5808 630.868 84.9964C631.544 87.5492 632.348 88.2385 633.42 88.2385C635.041 88.2385 635.041 86.3494 635.041 85.5325C635.041 84.4475 634.633 79.7248 634.633 78.7802C634.633 75.8062 635.577 61.8933 635.577 60.017C635.577 58.5363 634.901 58.1151 634.097 58.1151C633.293 58.1151 632.744 58.3959 632.067 60.1446C629.629 67.3053 628.43 70.2666 613.432 70.2666C605.607 70.2666 605.607 69.1816 605.607 64.8673C605.607 64.8673 605.607 45.2616 605.607 45.2616C605.607 38.5094 606.143 37.6031 612.896 37.6031C632.042 37.6031 635.309 42.7088 636.943 46.2445C639.381 51.2352 639.649 51.7841 641.13 51.7841C642.61 51.7841 642.483 50.163 642.483 49.4865C642.483 49.4865 642.483 37.016 642.483 37.016C642.483 33.9143 642.483 32.8293 640.862 32.8293C640.453 32.8293 640.326 32.957 636.816 33.0974C633.305 33.2378 626.272 33.3782 612.372 33.3782C612.372 33.3782 605.901 33.3782 605.901 33.3782C594.413 33.3782 588.605 33.2506 585.644 33.0974C584.513 33.0708 583.383 32.9813 582.262 32.8293C581.317 32.8293 579.556 32.8293 579.556 34.7312C579.556 36.6331 581.458 36.8883 584.419 37.016C591.171 37.4244 591.171 41.0622 591.171 46.6019C591.171 46.6019 591.171 103.619 591.171 103.619C591.171 109.159 591.171 112.809 584.419 113.205C581.585 113.473 579.556 113.614 579.556 115.503C579.556 117.392 581.317 117.519 582.389 117.519C583.461 117.519 584.419 117.379 586.589 117.251C588.759 117.124 592.128 116.983 597.668 116.983C597.668 116.983 599.276 116.983 599.276 116.983C600.093 116.983 606.437 117.111 614.146 117.251C621.856 117.392 631.429 117.519 638.309 117.519C642.24 117.519 643.581 116.039 643.708 113.46C644.117 108.47 645.61 99.8155 645.61 98.0669C645.585 97.2755 645.176 96.0501 643.964 96.0501C643.964 96.0501 643.964 96.0501 643.964 96.0501ZM466.096 65.4799C455.067 60.9359 447.077 57.4896 447.077 47.6995C447.077 42.3385 451.417 34.5397 462.1 34.6418C473.588 34.7439 476.013 42.3003 477.673 47.6995C479.051 51.9755 479.613 52.8051 480.979 52.8051C482.919 52.8051 482.919 51.6947 482.919 48.6696C482.919 36.5436 482.919 35.3055 481.259 34.3354C479.332 33.3654 471.214 31.1699 463.211 31.1699C445.711 31.1699 436.062 42.1854 436.062 54.8602C436.062 69.4751 446.949 74.836 458.105 79.8013C468.023 84.3453 477.379 89.5786 477.379 100.326C477.379 111.482 466.517 115.26 460.786 115.26C451.008 115.26 441.563 106.989 438.921 94.9906C438.653 93.7142 438.461 92.3357 437.236 92.3357C435.576 92.3357 435.487 94.2631 435.487 94.8119C435.477 99.044 435.72 103.272 436.215 107.475C436.585 110.908 437.134 113.678 438.653 114.789C441.129 116.575 447.932 119.205 458.68 119.205C477.009 119.205 488.305 106.441 488.305 91.1238C488.28 75.526 473.818 68.7738 466.096 65.4806C466.096 65.4806 466.096 65.4799 466.096 65.4799ZM141.401 31.1699C114.877 31.1699 94.9651 50.1757 94.9651 74.9764C94.9651 101.283 117.111 119.204 140.993 119.204C164.211 119.204 186.867 100.466 186.867 73.7383C186.867 50.0353 166.942 31.1699 141.401 31.1699C141.401 31.1699 141.401 31.1699 141.401 31.1699ZM142.078 115.413C123.889 115.413 110.92 94.3012 110.92 72.1044C110.92 52.6391 123.085 34.948 139.793 34.948C161.211 34.948 170.848 57.9234 170.848 74.2871C170.848 94.1736 160.93 115.413 142.078 115.413C142.078 115.413 142.078 115.413 142.078 115.413ZM86.3239 4.86913e-06C84.4515 0.272352 82.5614 0.404613 80.6694 0.395692C75.5637 0.587155 65.3524 0.778617 45.0957 0.778617C45.0957 0.778617 40.8452 0.778617 40.8452 0.778617C21.5076 0.778617 14.4362 0.574391 9.38164 0.395693C7.55044 0.364864 5.72235 0.232764 3.90574 0C2.55283 4.86913e-06 0 4.86913e-06 0 2.73153C0 5.46306 2.93575 5.66728 7.02028 6.05021C16.7848 6.63736 16.7848 11.9089 16.7848 19.9121C16.7848 19.9121 16.7848 100.735 16.7848 100.735C16.7848 107.219 16.7848 111.712 8.46262 112.222C4.96525 112.554 2.65494 112.72 2.65494 115.056C2.65494 117.392 4.79932 117.545 6.13955 117.545C9.30506 117.545 23.0776 116.881 25.8984 116.881C31.3998 116.881 40.3219 117.545 45.7977 117.545C47.0741 117.545 49.2823 117.545 49.2823 115.056C49.2823 112.567 46.9593 112.324 43.4619 112.21C35.1524 111.712 35.1524 107.219 35.1524 100.403C35.1524 100.403 35.1524 70.4325 35.1524 70.4325C35.1524 64.8929 35.1524 62.6975 38.3307 61.8295C40.4113 61.2679 49.41 61.2679 55.1411 61.2679C60.017 61.2679 72.5131 61.2679 75.2446 71.7983C75.6403 72.7811 76.9295 77.8357 77.389 79.2142C77.7208 80.1971 78.4739 82.4308 80.5034 82.3287C82.8393 82.2138 82.852 79.9929 82.852 78.6271C82.852 78.6271 82.0734 69.4497 82.0734 69.4497C81.6905 64.9567 81.6905 61.6508 81.6905 59.8893C81.6905 56.9664 82.2649 43.6917 82.2649 40.9729C82.2649 39.02 81.6777 37.7563 79.929 37.6414C78.1803 37.5266 77.1975 39.2114 76.8146 40.7687C74.3256 50.9034 71.4792 55.2177 55.7282 55.2177C52.8052 55.2177 41.2154 55.2177 38.2797 54.822C35.7268 54.4263 35.1652 54.2348 35.1652 43.7044C35.1652 43.7044 35.1652 16.3892 35.1652 16.3892C35.1652 7.2245 38.4966 6.82882 45.1212 6.82882C75.4871 6.82882 78.0272 10.9899 83.8476 23.9966C84.5752 25.6176 85.341 27.9024 87.4854 27.9024C89.6298 27.9024 89.6298 24.788 89.6298 24.188C89.6298 24.188 89.6298 3.51014 89.6298 3.51014C89.6298 0.970079 89.4383 4.86913e-06 86.3239 4.86913e-06C86.3239 4.86913e-06 86.3239 4.86913e-06 86.3239 4.86913e-06ZM265.711 113.473C261.882 112.911 260.044 109.555 257.35 104.832C257.35 104.832 244.254 81.6011 244.254 81.6011C241.14 75.9338 239.519 75.1296 237.758 74.0447C242.353 73.1001 256.266 69.858 256.266 54.056C256.266 49.3205 254.236 32.842 230.342 32.842C226.283 32.842 208.323 33.3909 204.673 33.3909C203.052 33.3909 196.44 32.842 195.087 32.842C190.632 32.842 190.083 32.842 190.083 34.7439C190.083 36.6458 191.985 36.7606 194.947 36.901C201.558 37.3095 201.558 40.96 201.558 46.4869C201.558 46.4869 201.558 103.747 201.558 103.747C201.558 109.414 201.558 112.937 194.947 113.473C192.113 113.601 190.083 113.741 190.083 115.643C190.083 117.545 191.845 117.532 192.917 117.532C195.355 117.532 206.294 116.996 208.591 116.996C209.128 116.996 222.236 117.532 224.802 117.532C225.874 117.532 227.636 117.66 227.636 115.783C227.636 113.907 225.734 113.614 222.772 113.486C216.02 113.077 216.02 109.427 216.02 103.76C216.02 103.76 216.02 79.5077 216.02 79.5077C216.02 77.2102 216.301 76.406 218.573 76.406C224.662 76.406 225.325 76.9421 228.299 82.7881C228.299 82.7881 244.663 113.473 244.663 113.473C246.144 116.307 246.68 117.532 249.118 117.532C249.118 117.532 266.911 117.532 266.911 117.532C267.855 117.532 269.196 117.302 269.196 115.911C269.196 114.52 268.545 113.894 265.711 113.473C265.711 113.473 265.711 113.473 265.711 113.473ZM222.773 72.8195C216.021 72.8195 216.021 72.5514 216.021 67.8159C216.021 67.8159 216.021 45.134 216.021 45.134C216.021 39.8624 216.149 36.6204 222.403 36.6204C239.15 36.6204 241.039 51.0694 241.039 55.9325C241.013 72.8195 227.636 72.8195 222.773 72.8195C222.773 72.8195 222.773 72.8195 222.773 72.8195ZM350.439 113.473C346.61 112.911 344.772 109.555 342.079 104.832C342.079 104.832 328.983 81.6011 328.983 81.6011C325.868 75.9338 324.247 75.1296 322.486 74.0447C327.081 73.1001 340.994 69.858 340.994 54.056C340.994 49.3205 338.964 32.842 315.07 32.842C311.011 32.842 293.051 33.3909 289.401 33.3909C287.78 33.3909 281.168 32.842 279.815 32.842C275.36 32.842 274.812 32.842 274.812 34.7439C274.812 36.6458 276.713 36.7606 279.675 36.901C286.286 37.3095 286.286 40.96 286.286 46.4869C286.286 46.4869 286.286 103.747 286.286 103.747C286.286 109.414 286.286 112.937 279.675 113.473C276.841 113.601 274.812 113.741 274.812 115.643C274.812 117.545 276.573 117.532 277.645 117.532C280.083 117.532 291.022 116.996 293.32 116.996C293.856 116.996 306.964 117.532 309.53 117.532C310.602 117.532 312.364 117.66 312.364 115.783C312.364 113.907 310.462 113.614 307.5 113.486C300.748 113.077 300.748 109.427 300.748 103.76C300.748 103.76 300.748 79.5077 300.748 79.5077C300.748 77.2102 301.029 76.406 303.301 76.406C309.39 76.406 310.053 76.9421 313.027 82.7881C313.027 82.7881 329.378 113.473 329.378 113.473C330.859 116.307 331.395 117.532 333.833 117.532C333.833 117.532 351.626 117.532 351.626 117.532C352.571 117.532 353.911 117.302 353.911 115.911C353.911 114.52 353.273 113.894 350.439 113.473C350.439 113.473 350.439 113.473 350.439 113.473ZM307.501 72.8195C300.749 72.8195 300.749 72.5514 300.749 67.8159C300.749 67.8159 300.749 45.134 300.749 45.134C300.749 39.8624 300.877 36.6204 307.131 36.6204C323.878 36.6204 325.767 51.0694 325.767 55.9325C325.728 72.8195 312.364 72.8195 307.501 72.8195C307.501 72.8195 307.501 72.8195 307.501 72.8195ZM728.833 113.473C725.003 112.911 723.165 109.555 720.472 104.832C720.472 104.832 707.376 81.6011 707.376 81.6011C704.262 75.9338 702.641 75.1296 700.879 74.0447C705.474 73.1001 719.387 69.858 719.387 54.056C719.387 49.3205 717.358 32.842 693.463 32.842C689.404 32.842 671.445 33.3909 667.794 33.3909C666.173 33.3909 659.562 32.842 658.209 32.842C653.754 32.842 653.205 32.842 653.205 34.7439C653.205 36.6458 655.107 36.7606 658.068 36.901C664.68 37.3095 664.68 40.96 664.68 46.4869C664.68 46.4869 664.68 103.747 664.68 103.747C664.68 109.414 664.68 112.937 658.068 113.473C655.235 113.601 653.205 113.741 653.205 115.643C653.205 117.545 654.967 117.532 656.039 117.532C658.477 117.532 669.416 116.996 671.713 116.996C672.249 116.996 685.358 117.532 687.924 117.532C688.996 117.532 690.757 117.66 690.757 115.783C690.757 113.907 688.855 113.614 685.894 113.486C679.052 113.065 679.052 109.414 679.052 103.747C679.052 103.747 679.052 79.4949 679.052 79.4949C679.052 77.1974 679.333 76.3933 681.605 76.3933C687.694 76.3933 688.358 76.9294 691.332 82.7753C691.332 82.7753 707.746 113.473 707.746 113.473C709.227 116.307 709.763 117.532 712.201 117.532C712.201 117.532 729.994 117.532 729.994 117.532C730.939 117.532 732.279 117.302 732.279 115.911C732.279 114.52 731.641 113.894 728.833 113.473C728.833 113.473 728.833 113.473 728.833 113.473ZM685.869 72.8195C679.117 72.8195 679.117 72.5514 679.117 67.8159C679.117 67.8159 679.117 45.134 679.117 45.134C679.117 39.8624 679.244 36.6204 685.499 36.6204C702.245 36.6204 704.134 51.0694 704.134 55.9325C704.096 72.8195 690.732 72.8195 685.869 72.8195C685.869 72.8195 685.869 72.8195 685.869 72.8195Z" fill="#FFFFFF" />
  </g>
</svg>