<?xml version="1.0" encoding="utf-8"?>
<svg width="1720" height="790" viewBox="0 0 1720 790" fill="none" xmlns="http://www.w3.org/2000/svg">
  <defs>
    <g id="group_1">
      <path d="M35 0L1685 0C1704.33 0 1720 15.6674 1720 35L1720 755C1720 774.333 1704.33 790 1685 790L35 790C15.6674 790 0 774.333 0 755L0 35C0 15.6674 15.6674 0 35 0L35 0Z" fill="#1E0B36" />
      <path d="M35 0L1619 0C1638.33 0 1654 15.6674 1654 35L1654 689C1654 708.333 1638.33 724 1619 724L35 724C15.6674 724 0 708.333 0 689L0 35C0 15.6674 15.6674 0 35 0L35 0Z" fill="#FFFFFF" transform="translate(36 34)" />
      <path d="M35 0L1619 0C1638.33 0 1654 15.6674 1654 35L1654 689C1654 708.333 1638.33 724 1619 724L35 724C15.6674 724 0 708.333 0 689L0 35C0 15.6674 15.6674 0 35 0L35 0Z" fill="#331477" transform="translate(36 34)" />
      <g transform="translate(452 311)">
        <path d="M141.238 2.47039C151.254 2.76147 160.249 5.59652 168.224 10.9755C176.286 16.4474 182.632 23.5851 187.259 32.3886C191.888 41.1921 194.052 50.8724 193.754 61.4292C193.754 61.4292 192.48 106.498 192.48 106.498C192.182 117.055 189.474 126.594 184.358 135.114C179.238 143.724 172.501 150.482 164.144 155.387C155.879 160.294 146.738 162.603 136.724 162.311C136.724 162.311 52.542 159.864 52.542 159.864C42.6164 159.576 33.621 156.741 25.5557 151.359C17.4905 145.978 11.146 138.839 6.52071 129.946C1.8923 121.143 -0.272202 111.462 0.027298 100.906C0.027298 100.906 1.29967 55.8364 1.29967 55.8364C1.59756 45.2796 4.30554 35.741 9.42201 27.2207C14.54 18.7003 21.2775 11.9427 29.6359 6.94813C37.9912 2.04367 47.1324 -0.26436 57.0563 0.024024C57.0563 0.024024 141.238 2.47039 141.238 2.47039ZM56.116 28.578C49.0775 28.3736 42.9533 30.9949 37.7433 36.4423C32.6205 41.9825 29.9458 48.7227 29.7224 56.6628C29.7224 56.6628 28.4484 101.732 28.4484 101.732C28.2218 109.763 30.5115 116.647 35.3158 122.385C40.2104 128.126 46.1762 131.099 53.2132 131.304C53.2132 131.304 137.666 133.758 137.666 133.758C144.704 133.963 150.782 131.34 155.904 125.89C161.114 120.442 163.833 113.703 164.059 105.673C164.059 105.673 165.333 60.6037 165.333 60.6037C165.557 52.6635 163.223 45.7778 158.331 39.9465C153.527 34.2081 147.605 31.2367 140.569 31.0323C140.569 31.0323 56.116 28.578 56.116 28.578Z" fill="#C6FF33" transform="matrix(0.999 -0.035 0.035 0.999 195.567 6.763)" />
        <path d="M30.4643 0C30.4643 0 86.7896 133.111 86.7896 133.111L142.979 0L173.443 0L104.527 162.336L68.9171 162.336L0 0C0 0 30.4643 0 30.4643 0Z" fill="#FFFFFF" transform="matrix(1 0 0 1 0 3.332)" />
        <path d="M138.376 0C148.395 0 157.468 2.5717 165.591 7.7167C173.804 12.952 180.35 19.9033 185.224 28.5676C190.098 37.2334 192.535 46.8468 192.535 57.4077C192.535 57.4077 192.535 102.496 192.535 102.496C192.535 113.057 190.098 122.67 185.224 131.334C180.35 140.09 173.804 147.04 165.591 152.185C157.468 157.332 148.395 159.903 138.376 159.903C138.376 159.903 54.1588 159.903 54.1588 159.903C44.2298 159.903 35.1582 157.332 26.944 152.185C18.7299 147.04 12.1858 140.09 7.31146 131.334C2.43716 122.67 0 113.057 0 102.496C0 102.496 0 57.4077 0 57.4077C0 46.8468 2.43716 37.2334 7.31146 28.5676C12.1858 19.9033 18.7299 12.952 26.944 7.7167C35.1582 2.5717 44.2298 0 54.1588 0C54.1588 0 138.376 0 138.376 0ZM54.0234 28.5674C46.9827 28.5674 40.935 31.3657 35.8802 36.9622C30.9155 42.6491 28.4333 49.4642 28.4333 57.4075C28.4333 57.4075 28.4333 102.495 28.4333 102.495C28.4333 110.529 30.9155 117.344 35.8802 122.939C40.935 128.536 46.9827 131.334 54.0234 131.334C54.0234 131.334 138.511 131.334 138.511 131.334C145.552 131.334 151.554 128.536 156.518 122.939C161.575 117.344 164.102 110.529 164.102 102.495C164.102 102.495 164.102 57.4075 164.102 57.4075C164.102 49.4642 161.575 42.6491 156.518 36.9622C151.554 31.3657 145.552 28.5674 138.511 28.5674C138.511 28.5674 54.0234 28.5674 54.0234 28.5674Z" fill="#6D33FF" transform="matrix(1 0 0 1 426.865 4.547)" />
        <path d="M0 6.12736e-05C0 6.12736e-05 28.5692 6.12736e-05 28.5692 6.12736e-05L28.5692 65.8701L128.357 65.8701L128.357 6.12736e-05L156.79 6.12736e-05L156.79 162.336L128.357 162.336L128.357 89.8445L28.5692 89.8445L28.5692 162.336L0 162.336C0 162.336 0 6.12736e-05 0 6.12736e-05Z" fill="#FFFFFF" transform="matrix(1 0 0 1 658.666 3.332)" />
      </g>
      <path d="M35 0L1619 0C1638.33 0 1654 15.6674 1654 35L1654 689C1654 708.333 1638.33 724 1619 724L35 724C15.6674 724 0 708.333 0 689L0 35C0 15.6674 15.6674 0 35 0L35 0Z" fill="#000000" fill-opacity="0.6" transform="translate(36 34)" />
      <path d="M35 0L1619 0C1638.33 0 1654 15.6674 1654 35L1654 689C1654 708.333 1638.33 724 1619 724L35 724C15.6674 724 0 708.333 0 689L0 35C0 15.6674 15.6674 0 35 0L35 0Z" fill="#000000" fill-opacity="0.6" />
    </g>
    <path id="path_2" d="M35 0L1619 0C1638.33 0 1654 15.6674 1654 35L1654 689C1654 708.333 1638.33 724 1619 724L35 724C15.6674 724 0 708.333 0 689L0 35C0 15.6674 15.6674 0 35 0L35 0Z" />
    <clipPath id="clip_path_3" transform="translate(36 34)">
      <use p4:href="#path_2" xmlns:p4="http://www.w3.org/1999/xlink" />
    </clipPath>
    <filter color-interpolation-filters="sRGB" x="-1652" y="-722" width="1654" height="724" id="filter_4">
      <feFlood flood-opacity="0" result="BackgroundImageFix_1" />
      <feBlend mode="normal" in="SourceGraphic" in2="BackgroundImageFix_1" result="Shape_2" />
      <feGaussianBlur stdDeviation="2.5" />
    </filter>
  </defs>
  <g>
    <g>
      <path d="M35 0L1685 0C1704.33 0 1720 15.6674 1720 35L1720 755C1720 774.333 1704.33 790 1685 790L35 790C15.6674 790 0 774.333 0 755L0 35C0 15.6674 15.6674 0 35 0L35 0Z" fill="#1E0B36" />
      <path d="M35 0L1619 0C1638.33 0 1654 15.6674 1654 35L1654 689C1654 708.333 1638.33 724 1619 724L35 724C15.6674 724 0 708.333 0 689L0 35C0 15.6674 15.6674 0 35 0L35 0Z" fill="#FFFFFF" transform="translate(36 34)" />
      <path d="M35 0L1619 0C1638.33 0 1654 15.6674 1654 35L1654 689C1654 708.333 1638.33 724 1619 724L35 724C15.6674 724 0 708.333 0 689L0 35C0 15.6674 15.6674 0 35 0L35 0Z" fill="#331477" transform="translate(36 34)" />
      <g transform="translate(452 311)">
        <path d="M141.238 2.47039C151.254 2.76147 160.249 5.59652 168.224 10.9755C176.286 16.4474 182.632 23.5851 187.259 32.3886C191.888 41.1921 194.052 50.8724 193.754 61.4292C193.754 61.4292 192.48 106.498 192.48 106.498C192.182 117.055 189.474 126.594 184.358 135.114C179.238 143.724 172.501 150.482 164.144 155.387C155.879 160.294 146.738 162.603 136.724 162.311C136.724 162.311 52.542 159.864 52.542 159.864C42.6164 159.576 33.621 156.741 25.5557 151.359C17.4905 145.978 11.146 138.839 6.52071 129.946C1.8923 121.143 -0.272202 111.462 0.027298 100.906C0.027298 100.906 1.29967 55.8364 1.29967 55.8364C1.59756 45.2796 4.30554 35.741 9.42201 27.2207C14.54 18.7003 21.2775 11.9427 29.6359 6.94813C37.9912 2.04367 47.1324 -0.26436 57.0563 0.024024C57.0563 0.024024 141.238 2.47039 141.238 2.47039ZM56.116 28.578C49.0775 28.3736 42.9533 30.9949 37.7433 36.4423C32.6205 41.9825 29.9458 48.7227 29.7224 56.6628C29.7224 56.6628 28.4484 101.732 28.4484 101.732C28.2218 109.763 30.5115 116.647 35.3158 122.385C40.2104 128.126 46.1762 131.099 53.2132 131.304C53.2132 131.304 137.666 133.758 137.666 133.758C144.704 133.963 150.782 131.34 155.904 125.89C161.114 120.442 163.833 113.703 164.059 105.673C164.059 105.673 165.333 60.6037 165.333 60.6037C165.557 52.6635 163.223 45.7778 158.331 39.9465C153.527 34.2081 147.605 31.2367 140.569 31.0323C140.569 31.0323 56.116 28.578 56.116 28.578Z" fill="#C6FF33" transform="matrix(0.999 -0.035 0.035 0.999 195.567 6.763)" />
        <path d="M30.4643 0C30.4643 0 86.7896 133.111 86.7896 133.111L142.979 0L173.443 0L104.527 162.336L68.9171 162.336L0 0C0 0 30.4643 0 30.4643 0Z" fill="#FFFFFF" transform="matrix(1 0 0 1 0 3.332)" />
        <path d="M138.376 0C148.395 0 157.468 2.5717 165.591 7.7167C173.804 12.952 180.35 19.9033 185.224 28.5676C190.098 37.2334 192.535 46.8468 192.535 57.4077C192.535 57.4077 192.535 102.496 192.535 102.496C192.535 113.057 190.098 122.67 185.224 131.334C180.35 140.09 173.804 147.04 165.591 152.185C157.468 157.332 148.395 159.903 138.376 159.903C138.376 159.903 54.1588 159.903 54.1588 159.903C44.2298 159.903 35.1582 157.332 26.944 152.185C18.7299 147.04 12.1858 140.09 7.31146 131.334C2.43716 122.67 0 113.057 0 102.496C0 102.496 0 57.4077 0 57.4077C0 46.8468 2.43716 37.2334 7.31146 28.5676C12.1858 19.9033 18.7299 12.952 26.944 7.7167C35.1582 2.5717 44.2298 0 54.1588 0C54.1588 0 138.376 0 138.376 0ZM54.0234 28.5674C46.9827 28.5674 40.935 31.3657 35.8802 36.9622C30.9155 42.6491 28.4333 49.4642 28.4333 57.4075C28.4333 57.4075 28.4333 102.495 28.4333 102.495C28.4333 110.529 30.9155 117.344 35.8802 122.939C40.935 128.536 46.9827 131.334 54.0234 131.334C54.0234 131.334 138.511 131.334 138.511 131.334C145.552 131.334 151.554 128.536 156.518 122.939C161.575 117.344 164.102 110.529 164.102 102.495C164.102 102.495 164.102 57.4075 164.102 57.4075C164.102 49.4642 161.575 42.6491 156.518 36.9622C151.554 31.3657 145.552 28.5674 138.511 28.5674C138.511 28.5674 54.0234 28.5674 54.0234 28.5674Z" fill="#6D33FF" transform="matrix(1 0 0 1 426.865 4.547)" />
        <path d="M0 6.12736e-05C0 6.12736e-05 28.5692 6.12736e-05 28.5692 6.12736e-05L28.5692 65.8701L128.357 65.8701L128.357 6.12736e-05L156.79 6.12736e-05L156.79 162.336L128.357 162.336L128.357 89.8445L28.5692 89.8445L28.5692 162.336L0 162.336C0 162.336 0 6.12736e-05 0 6.12736e-05Z" fill="#FFFFFF" transform="matrix(1 0 0 1 658.666 3.332)" />
      </g>
      <path d="M35 0L1619 0C1638.33 0 1654 15.6674 1654 35L1654 689C1654 708.333 1638.33 724 1619 724L35 724C15.6674 724 0 708.333 0 689L0 35C0 15.6674 15.6674 0 35 0L35 0Z" fill="#000000" fill-opacity="0.6" transform="translate(36 34)" />
      <use p4:href="#group_1" clip-path="url(#clip_path_3)" filter="url(#filter_4)" xmlns:p4="http://www.w3.org/1999/xlink" />
    </g>
  </g>
</svg>