<?xml version="1.0" encoding="utf-8"?>
<svg width="257.804" height="150" viewBox="0 0 257.804 150" fill="none" xmlns="http://www.w3.org/2000/svg">
  <defs>
    <clipPath id="clip_path_1">
      <rect width="257.804" height="150" />
    </clipPath>
  </defs>
  <g clip-path="url(#clip_path_1)">
    <g transform="translate(0 2.146)">
      <path d="M0 19.8406L0 0C0 0 110.675 0 110.675 0C110.675 0 84.0663 1.98277 84.0663 20.4372C84.0663 20.4372 0 19.8406 0 19.8406L0 19.8406Z" fill="#1E0B36" transform="translate(0 127.417)" />
      <line x1="0" y1="0" x2="257.731" y2="0" fill="none" stroke-width="8" stroke="#1E0B36" transform="matrix(1 0 0 1 0 285.714)" />
      <path d="M9.93534 0C9.93534 0 243.409 0 243.409 0C248.89 0 253.34 4.45052 253.34 9.93104C253.34 9.93104 253.34 111.688 253.34 111.688L0 111.688C0 111.688 0 9.93104 0 9.93104C0 4.45052 4.45481 0 9.93534 0C9.93534 0 9.93534 0 9.93534 0Z" fill="none" stroke-width="10" stroke="#1E0B36" transform="matrix(1 0 0 1 2.318 0)" />
      <path d="M19.1012 4.77477C19.024 4.93785 18.9725 5.11381 18.8695 5.25543C18.5047 5.75756 17.8009 5.8434 17.3245 5.44856C16.8652 5.07088 16.4361 4.6503 15.9597 4.29408C14.419 3.14819 12.6851 2.4701 10.7753 2.26839C7.95564 1.96797 5.39348 2.64606 3.106 4.32412C2.65536 4.65459 2.25195 5.04513 1.83136 5.41422C1.36356 5.82623 0.689758 5.76185 0.303505 5.35413C-0.125671 4.89922 -0.0956268 4.24258 0.367874 3.78336C1.21764 2.93789 2.17041 2.22118 3.21759 1.6375C4.62527 0.852112 6.12738 0.349983 7.7196 0.126808C8.87407 -0.0362778 10.0329 -0.0405655 11.1959 0.105347C13.8868 0.448685 16.2344 1.53449 18.2644 3.32843C18.4704 3.50868 18.6721 3.69752 18.8438 3.90782C18.9596 4.04945 19.024 4.23828 19.1098 4.40995C19.1098 4.40995 19.1098 4.78333 19.1098 4.78333C19.1098 4.78333 19.1012 4.77477 19.1012 4.77477Z" fill="#1E0B36" transform="translate(127.058 84.596)" />
      <path d="M7.05884 0C9.55234 0.042923 11.7583 0.931305 13.5951 2.71237C14.1874 3.28746 14.0629 4.18873 13.3376 4.53207C12.9342 4.7209 12.5265 4.68228 12.1875 4.39043C11.6639 3.9398 11.1532 3.48059 10.5437 3.14155C9.71971 2.68233 8.8485 2.3862 7.9129 2.27032C6.14471 2.05145 4.50528 2.42483 3.01605 3.39905C2.59975 3.67372 2.23067 4.02564 1.84441 4.34753C1.35944 4.74665 0.694229 4.7252 0.299377 4.29173C-0.116913 3.83251 -0.0997467 3.18018 0.355179 2.73383C1.5311 1.57507 2.91733 0.768219 4.51385 0.330467C5.325 0.107292 6.15758 0.00858307 7.05884 0C7.05884 0 7.05884 0 7.05884 0Z" fill="#1E0B36" transform="matrix(1 0 0 1 129.62 88.217)" />
      <path d="M7.78221 3.56474C7.42171 3.56474 7.15991 3.43599 6.93674 3.22141C6.25436 2.56477 5.43465 2.21284 4.49046 2.19569C3.5334 2.17852 2.68793 2.5004 1.9798 3.15273C1.73517 3.37591 1.47766 3.56045 1.13004 3.56474C0.657944 3.56903 0.245941 3.30295 0.0742798 2.87807C-0.0888062 2.46606 0.0227814 1.98109 0.348953 1.66351C1.16438 0.869537 2.13 0.328781 3.24586 0.118484C5.11276 -0.233437 6.79083 0.195732 8.24142 1.44463C8.47748 1.64634 8.70493 1.85234 8.79077 2.17422C8.97961 2.88235 8.4646 3.56903 7.77364 3.56474C7.77364 3.56474 7.78221 3.56474 7.78221 3.56474Z" fill="#1E0B36" transform="translate(132.184 91.853)" />
      <path d="M3.74263 1.89697C3.72546 2.94845 2.87999 3.76388 1.82854 3.74671C0.802811 3.72525 -0.0168915 2.87978 0.000259399 1.85405C0.0174255 0.798286 0.828552 -0.00427246 1.88432 2.28882e-05C2.94867 0.00431061 3.7598 0.85408 3.74263 1.90125C3.74263 1.90125 3.74263 1.89697 3.74263 1.89697Z" fill="#1E0B36" transform="translate(134.733 95.774)" />
      <path d="M7.60064 7.34314L7.60064 25.5615L0 25.5615L0 0C0 0 9.9053 0 9.9053 0C14.2485 0 17.6519 0.987099 20.111 2.957C23.0337 5.31744 24.4929 8.51907 24.4929 12.5619C24.4929 16.6047 23.244 19.5917 20.7462 22.038C18.2484 24.4843 15.0339 25.7074 11.1027 25.7074C10.6392 25.7074 9.88384 25.6817 8.83666 25.6345C8.83666 25.6345 8.83666 18.124 8.83666 18.124C8.83666 18.124 10.0555 18.124 10.0555 18.124C14.4889 18.124 16.7034 16.2699 16.7034 12.5619C16.7034 9.077 14.5232 7.33885 10.1671 7.33885C10.1671 7.33885 7.60064 7.33885 7.60064 7.33885L7.60064 7.34314Z" fill="#1E0B36" transform="translate(20.334 74.191)" />
      <path d="M13.6477 0C17.2656 0 20.3728 1.31756 22.965 3.95268C25.5572 6.5878 26.849 9.73792 26.849 13.4073C26.849 17.0768 25.5443 20.3127 22.935 22.9178C20.3256 25.5272 17.154 26.8318 13.4245 26.8318C9.695 26.8318 6.55346 25.5229 3.93122 22.9006C1.30898 20.2784 0 17.1154 0 13.4073C0 9.6993 1.32185 6.49338 3.96126 3.89688C6.60067 1.30039 9.83233 0 13.652 0C13.652 0 13.6477 0 13.6477 0ZM13.4246 7.5276C11.8624 7.5276 10.5363 8.10269 9.43757 9.24858C8.33889 10.3988 7.78955 11.785 7.78955 13.4073C7.78955 15.0295 8.34318 16.4158 9.44616 17.5659C10.5491 18.7161 11.8753 19.2869 13.4246 19.2869C14.9739 19.2869 16.3301 18.7161 17.4245 17.5745C18.5146 16.4329 19.0639 15.0424 19.0639 13.4073C19.0639 11.7721 18.5189 10.3816 17.4245 9.23999C16.3301 8.09839 14.9996 7.52759 13.4246 7.52759C13.4246 7.52759 13.4246 7.5276 13.4246 7.5276Z" fill="#1E0B36" transform="translate(46.87 73.56)" />
      <path d="M13.652 0C17.2742 0 20.3771 1.31756 22.9693 3.95268C25.5615 6.5878 26.8533 9.73792 26.8533 13.4073C26.8533 17.0768 25.5486 20.3127 22.9393 22.9178C20.3299 25.5272 17.1583 26.8318 13.4245 26.8318C9.69071 26.8318 6.55347 25.5229 3.93122 22.9006C1.30898 20.2784 0 17.1154 0 13.4073C0 9.6993 1.32185 6.49338 3.96126 3.89688C6.60067 1.30039 9.83234 0 13.652 0C13.652 0 13.652 0 13.652 0ZM13.4285 7.5276C11.8663 7.5276 10.5402 8.10269 9.44147 9.24858C8.3428 10.3988 7.79346 11.785 7.79346 13.4073C7.79346 15.0295 8.34708 16.4158 9.45006 17.5659C10.553 18.7161 11.8835 19.2869 13.4285 19.2869C14.9735 19.2869 16.334 18.7161 17.4284 17.5745C18.5185 16.4329 19.0678 15.0424 19.0678 13.4073C19.0678 11.7721 18.5228 10.3816 17.4284 9.23999C16.334 8.09839 15.0036 7.52759 13.4285 7.52759C13.4285 7.52759 13.4285 7.5276 13.4285 7.5276Z" fill="#1E0B36" transform="translate(75.758 73.56)" />
      <path d="M9.71646 9.13708L9.71646 15.8794L7.60065 15.8794L7.60065 25.5615L0 25.5615L0 0L7.60065 0L7.60065 9.13708L9.71646 9.13708L9.71646 9.13708ZM18.6089 0L18.6089 25.5615L11.0083 25.5615L11.0083 0L18.6089 0L18.6089 0Z" fill="#1E0B36" transform="translate(106.19 74.195)" />
      <path d="M0 3.8147e-06C0 3.8147e-06 9.28729 3.8147e-06 9.28729 3.8147e-06C14.7936 3.8147e-06 17.5446 2.16732 17.5446 6.49767C17.5446 8.64353 16.6004 10.4289 14.7163 11.8537C17.4501 13.0383 18.8192 15.1541 18.8192 18.2012C18.8192 20.5359 18.0124 22.3942 16.403 23.7804C15.6176 24.4414 14.7721 24.9049 13.8751 25.1667C12.9782 25.4285 11.7636 25.5615 10.2443 25.5615C10.2443 25.5615 8.80232 25.5615 8.80232 25.5615L8.80232 18.9909C8.80232 18.9909 10.0941 18.9909 10.0941 18.9909C10.8538 18.9909 11.3902 18.8922 11.7035 18.699C12.0168 18.5059 12.1713 18.1669 12.1713 17.6776C12.1713 16.8536 11.5361 16.4416 10.2615 16.4416C10.2615 16.4416 8.80232 16.4416 8.80232 16.4416C8.80232 16.4416 8.80232 9.62633 8.80232 9.62633C10.2014 9.62633 10.901 9.14566 10.901 8.18431C10.901 7.30022 10.2701 6.85388 9.00832 6.85388C9.00832 6.85388 7.60493 6.85388 7.60493 6.85388L7.60493 25.5615L0.00428772 25.5615L0.00428772 0L0 3.8147e-06Z" fill="#1E0B36" transform="matrix(1 0 0 1 20.519 43.724)" />
      <path d="M7.60064 0L7.60064 25.5615L0 25.5615L0 3.8147e-06L7.60064 3.8147e-06L7.60064 0Z" fill="#1E0B36" transform="translate(42.406 43.724)" />
      <path d="M1.14441e-05 0.00429153L7.60065 0.00429153C7.60065 0.00429153 7.60065 15.1884 7.60065 15.1884C7.60065 16.3729 7.78949 17.1626 8.17145 17.5574C8.55341 17.9523 9.30447 18.1454 10.4289 18.1454C10.4289 18.1454 10.8237 18.1454 10.8237 18.1454L10.8237 25.5615C10.8237 25.5615 8.80233 25.5615 8.80233 25.5615C6.02987 25.5615 3.87114 24.7547 2.32182 23.1367C0.772511 21.5187 0 19.2784 0 16.403C0 16.403 0 0 0 0L1.14441e-05 0.00429153Z" fill="#1E0B36" transform="translate(54.595 43.72)" />
      <path d="M1.52588e-05 0.00429153L7.60065 0.00429153C7.60065 0.00429153 7.60065 15.1884 7.60065 15.1884C7.60065 16.3729 7.78949 17.1626 8.17145 17.5574C8.55341 17.9523 9.30447 18.1454 10.4289 18.1454C10.4289 18.1454 10.8237 18.1454 10.8237 18.1454L10.8237 25.5615C10.8237 25.5615 8.80233 25.5615 8.80233 25.5615C6.02987 25.5615 3.87113 24.7547 2.32182 23.1367C0.772514 21.5187 0 19.2784 0 16.403C0 16.403 0 0 0 0L1.52588e-05 0.00429153Z" fill="#1E0B36" transform="translate(67.461 43.72)" />
      <path d="M0 3.8147e-06C0 3.8147e-06 9.28729 3.8147e-06 9.28729 3.8147e-06C14.7936 3.8147e-06 17.5446 2.16732 17.5446 6.49767C17.5446 8.64353 16.6004 10.4289 14.7163 11.8537C17.4501 13.0383 18.8192 15.1541 18.8192 18.2012C18.8192 20.5359 18.0124 22.3942 16.403 23.7804C15.6176 24.4414 14.7721 24.9049 13.8751 25.1667C12.9782 25.4285 11.7636 25.5615 10.2443 25.5615C10.2443 25.5615 8.80232 25.5615 8.80232 25.5615L8.80232 18.9909C8.80232 18.9909 10.0941 18.9909 10.0941 18.9909C10.8538 18.9909 11.3902 18.8922 11.7035 18.699C12.0168 18.5059 12.1713 18.1669 12.1713 17.6776C12.1713 16.8536 11.5361 16.4416 10.2615 16.4416C10.2615 16.4416 8.80232 16.4416 8.80232 16.4416C8.80232 16.4416 8.80232 9.62633 8.80232 9.62633C10.2014 9.62633 10.901 9.14566 10.901 8.18431C10.901 7.30022 10.2701 6.85388 9.00832 6.85388C9.00832 6.85388 7.60493 6.85388 7.60493 6.85388L7.60493 25.5615L0.00428772 25.5615L0.00428772 0L0 3.8147e-06Z" fill="#1E0B36" transform="matrix(1 0 0 1 80.852 43.724)" />
      <path d="M13.652 3.8147e-06C17.2699 3.8147e-06 20.3771 1.31756 22.9693 3.95268C25.5615 6.5878 26.8533 9.73792 26.8533 13.4073C26.8533 17.0768 25.5486 20.3127 22.9393 22.9178C20.3299 25.5272 17.1583 26.8319 13.4245 26.8319C9.69071 26.8319 6.55347 25.5229 3.93122 22.9006C1.30898 20.2784 0 17.1154 0 13.4073C0 9.6993 1.32185 6.49338 3.96126 3.89688C6.60067 1.30039 9.83234 0 13.652 0C13.652 0 13.652 3.8147e-06 13.652 3.8147e-06ZM13.4287 7.52784C11.8665 7.52784 10.5404 8.10293 9.44172 9.24882C8.34304 10.399 7.7937 11.7852 7.7937 13.4075C7.7937 15.0298 8.34733 16.416 9.4503 17.5662C10.5533 18.7164 11.8837 19.2872 13.4287 19.2872C14.9737 19.2872 16.3342 18.7164 17.4286 17.5748C18.5187 16.4332 19.068 15.0426 19.068 13.4075C19.068 11.7723 18.523 10.3818 17.4286 9.24023C16.3342 8.09863 15.0038 7.52783 13.4287 7.52783C13.4287 7.52783 13.4287 7.52784 13.4287 7.52784Z" fill="#1E0B36" transform="translate(101.203 43.089)" />
      <path d="M9.78943 13.3687L9.78943 20.111L7.60065 20.111L7.60065 26.1967L0 26.1967C0 26.1967 0 9.94392 0 9.94392C0 6.79809 0.858337 4.3561 2.57503 2.61366C4.29172 0.87122 6.70367 0 9.81088 0C12.9181 0 15.021 0.789677 16.4588 2.36903C17.8922 3.94839 18.6132 6.38609 18.6132 9.68213C18.6132 9.68213 18.6132 26.1967 18.6132 26.1967L11.0126 26.1967C11.0126 26.1967 11.0126 10.1885 11.0126 10.1885C11.0126 9.18858 10.8924 8.49761 10.6563 8.11136C10.4203 7.7251 9.99542 7.53197 9.3817 7.53197C8.19719 7.53197 7.60492 8.42036 7.60492 10.1928C7.60492 10.1928 7.60492 13.3773 7.60492 13.3773L9.7937 13.3773L9.78943 13.3687Z" fill="#1E0B36" transform="translate(131.112 43.089)" />
      <path d="M7.60065 6.87534L7.60065 25.5615L0 25.5615L0 0C0 0 9.7551 0 9.7551 0C12.725 0 15.0296 0.738178 16.6648 2.21024C18.4888 3.85826 19.3986 5.94833 19.3986 8.48474C19.3986 11.0211 18.2699 13.2486 16.0081 15.021C16.0081 15.021 20.39 25.5615 20.39 25.5615L12.4117 25.5615L8.72508 17.3214L8.72508 10.7508C8.72508 10.7508 9.32593 10.7508 9.32593 10.7508C10.9224 10.7508 11.725 10.0641 11.725 8.69074C11.725 7.48047 10.8023 6.87534 8.95255 6.87534C8.95255 6.87534 7.60493 6.87534 7.60493 6.87534L7.60065 6.87534Z" fill="#1E0B36" transform="translate(154.33 43.72)" />
      <path d="M7.60065 7.34313L7.60065 25.5615L0 25.5615L0 0C0 0 9.90529 0 9.90529 0C14.2485 0 17.6519 0.987099 20.111 2.957C23.0337 5.31744 24.4929 8.51907 24.4929 12.5619C24.4929 16.6047 23.244 19.5917 20.7462 22.038C18.2484 24.4843 15.0339 25.7074 11.1027 25.7074C10.6392 25.7074 9.88382 25.6817 8.83664 25.6345C8.83664 25.6345 8.83664 18.1239 8.83664 18.1239C8.83664 18.1239 10.0555 18.1239 10.0555 18.1239C14.4888 18.1239 16.7034 16.2699 16.7034 12.5619C16.7034 9.077 14.5232 7.33885 10.1671 7.33885C10.1671 7.33885 7.60062 7.33885 7.60062 7.33885L7.60065 7.34313Z" fill="#1E0B36" transform="matrix(1 0 0 1 177.27 43.72)" />
      <path d="M13.2915 0.527885C13.2915 0.527885 13.2915 7.81094 13.2915 7.81094C12.7421 7.6221 12.3173 7.53198 12.0168 7.53198C11.4417 7.53198 10.9482 7.74227 10.5362 8.16716C10.1242 8.59203 9.91817 9.10275 9.91817 9.70359C9.91817 10.2143 10.1413 10.8667 10.592 11.652C10.592 11.652 11.1714 12.6649 11.1714 12.6649C12.2185 14.4889 12.7464 16.2485 12.7464 17.9437C12.7464 20.4286 11.8623 22.5316 10.0984 24.2525C8.33023 25.9735 6.17578 26.8362 3.6308 26.8362C2.40765 26.8362 1.19739 26.5572 0 25.995C0 25.995 0 18.6003 0 18.6003C0.725296 19.0638 1.36906 19.2913 1.92699 19.2913C2.58791 19.2913 3.14153 19.1025 3.58357 18.7205C4.02562 18.3385 4.24879 17.8622 4.24879 17.2871C4.24879 16.9137 3.89258 16.094 3.18016 14.8322C2.04285 12.8366 1.47633 10.8366 1.47633 8.84095C1.47633 6.4333 2.33469 4.3561 4.05138 2.61366C5.76807 0.871216 7.8195 0 10.2014 0C11.2486 0 12.2786 0.175961 13.2915 0.52359C13.2915 0.52359 13.2915 0.527885 13.2915 0.527885Z" fill="#1E0B36" transform="translate(204.046 43.085)" />
      <path d="M13.2915 0.527884C13.2915 0.527884 13.2915 7.81094 13.2915 7.81094C12.7421 7.6221 12.3172 7.53197 12.0168 7.53197C11.4417 7.53197 10.9482 7.74227 10.5362 8.16715C10.1242 8.59203 9.91817 9.10275 9.91817 9.70359C9.91817 10.2143 10.1413 10.8666 10.592 11.652C10.592 11.652 11.1714 12.6649 11.1714 12.6649C12.2185 14.4889 12.7464 16.2485 12.7464 17.9437C12.7464 20.4286 11.8623 22.5316 10.0984 24.2525C8.33023 25.9735 6.17579 26.8362 3.6308 26.8362C2.40766 26.8362 1.19739 26.5572 0 25.995C0 25.995 0 18.6003 0 18.6003C0.7253 19.0638 1.36906 19.2913 1.92698 19.2913C2.58791 19.2913 3.14154 19.1025 3.58359 18.7205C4.02563 18.3385 4.2488 17.8622 4.2488 17.2871C4.2488 16.9137 3.89259 16.094 3.18016 14.8322C2.04286 12.8365 1.47635 10.8366 1.47635 8.84095C1.47635 6.4333 2.33469 4.3561 4.05138 2.61366C5.76807 0.87122 7.81952 0 10.2014 0C11.2486 0 12.2786 0.175961 13.2915 0.523591C13.2915 0.523591 13.2915 0.527884 13.2915 0.527884Z" fill="#1E0B36" transform="matrix(1 0 0 1 20.755 13.043)" />
      <path d="M0 26.1967C0 26.1967 0 7.77231 0 7.77231C0 5.48912 0.695259 3.62222 2.07719 2.17161C3.46342 0.725303 5.26165 0 7.47189 0C10.0941 0 12.1112 1.20597 13.5189 3.61363C14.3816 2.31753 15.3043 1.39052 16.2914 0.832594C17.2785 0.278961 18.493 0 19.9436 0C22.2397 0 23.9993 0.725301 25.2225 2.17161C26.4456 3.61792 27.0593 5.7037 27.0593 8.42466C27.0593 8.42466 27.0593 26.1967 27.0593 26.1967L19.4587 26.1967C19.4587 26.1967 19.4587 9.57055 19.4587 9.57055C19.4587 8.74653 19.3943 8.20148 19.2613 7.93111C19.1282 7.66502 18.8664 7.52768 18.4673 7.52768C17.7162 7.52768 17.3428 8.16286 17.3428 9.4375C17.3428 9.4375 17.3428 26.1967 17.3428 26.1967L9.74221 26.1967C9.74221 26.1967 9.74221 9.57055 9.74221 9.57055C9.74221 8.75941 9.67354 8.21436 9.5362 7.93969C9.39887 7.66502 9.12849 7.52768 8.72936 7.52768C7.9826 7.52768 7.60493 8.21007 7.60493 9.57055C7.60493 9.57055 7.60493 26.1967 7.60493 26.1967L0.00428391 26.1967L0 26.1967Z" fill="#1E0B36" transform="matrix(1 0 0 1 37.376 13.047)" />
      <path d="M9.78942 13.3687L9.78942 20.111L7.60064 20.111L7.60064 26.1967L0 26.1967C0 26.1967 0 9.94392 0 9.94392C0 6.79809 0.858345 4.3561 2.57504 2.61366C4.29173 0.87122 6.70367 0 9.81088 0C12.9181 0 15.021 0.789678 16.4588 2.36903C17.8965 3.94839 18.6132 6.38609 18.6132 9.68213C18.6132 9.68213 18.6132 26.1967 18.6132 26.1967L11.0126 26.1967C11.0126 26.1967 11.0126 10.1886 11.0126 10.1886C11.0126 9.18858 10.8924 8.49761 10.6563 8.11136C10.4203 7.7251 9.99543 7.53197 9.38171 7.53197C8.1972 7.53197 7.60493 8.42036 7.60493 10.1928C7.60493 10.1928 7.60493 13.3773 7.60493 13.3773L9.79372 13.3773L9.78942 13.3687Z" fill="#1E0B36" transform="matrix(1 0 0 1 68.522 13.047)" />
      <path d="M7.60064 6.87534L7.60064 25.5615L0 25.5615L0 0C0 0 9.75508 0 9.75508 0C12.725 0 15.0296 0.738177 16.6648 2.21024C18.4887 3.85826 19.3986 5.94833 19.3986 8.48474C19.3986 11.0211 18.2699 13.2486 16.0081 15.021C16.0081 15.021 20.39 25.5615 20.39 25.5615L12.4117 25.5615L8.72508 17.3214L8.72508 10.7508C8.72508 10.7508 9.32592 10.7508 9.32592 10.7508C10.9224 10.7508 11.7207 10.0641 11.7207 8.69074C11.7207 7.48047 10.798 6.87534 8.94824 6.87534C8.94824 6.87534 7.60065 6.87534 7.60065 6.87534L7.60064 6.87534Z" fill="#1E0B36" transform="matrix(1 0 0 1 91.74 13.678)" />
      <path d="M13.4245 7.33885L13.4245 25.5572L5.82388 25.5572L5.82388 7.33885L0 7.33885L0 0L19.2312 0L19.2312 7.33885L13.4245 7.33885L13.4245 7.33885Z" fill="#1E0B36" transform="matrix(1 0 0 1 112.375 13.682)" />
    </g>
  </g>
</svg>