<?xml version="1.0" encoding="utf-8"?>
<svg width="71.823" height="71.823" viewBox="0 0 71.823 71.823" fill="none" xmlns="http://www.w3.org/2000/svg">
  <g>
    <path d="M0 11.2223C0 5.03432 5.03432 0 11.2223 0C17.4103 0 22.4446 5.03432 22.4446 11.2223C22.4446 14.874 20.6647 18.0926 17.9557 20.1418C17.9557 20.1418 17.9557 11.2223 17.9557 11.2223C17.9557 7.50996 14.9346 4.48892 11.2223 4.48892C7.50996 4.48892 4.48892 7.50996 4.48892 11.2223C4.48892 11.2223 4.48892 20.1418 4.48892 20.1418C1.77986 18.0926 0 14.874 0 11.2223C0 11.2223 0 11.2223 0 11.2223ZM38.1558 26.9335C35.6779 26.9335 33.6669 28.9446 33.6669 31.4224C33.6669 31.4224 33.6669 29.178 33.6669 29.178C33.6669 26.7001 31.6558 24.6891 29.178 24.6891C26.7001 24.6891 24.689 26.7001 24.689 29.178C24.689 29.178 24.689 26.9335 24.689 26.9335C24.689 24.4556 22.678 22.4446 20.2001 22.4446C17.7222 22.4446 15.7112 24.4556 15.7112 26.9335C15.7112 26.9335 15.7112 11.2223 15.7112 11.2223C15.7112 8.74443 13.7002 6.7334 11.2223 6.7334C8.74441 6.7334 6.73338 8.74443 6.73338 11.2223C6.73338 11.2223 6.73338 34.2886 6.73338 34.2886C6.07126 33.9048 5.31039 33.6669 4.48892 33.6669C2.01103 33.6669 0 35.6779 0 38.1558C0 38.1558 0 44.8892 0 44.8892C0 45.9082 0.347891 46.898 0.983072 47.6925C0.983072 47.6925 8.97783 60.6004 8.97783 60.6004L35.9113 60.6004C35.9113 60.6004 41.0579 53.2094 41.0579 53.2094C41.931 52.3363 42.6447 50.6126 42.6447 49.3781C42.6447 49.3781 42.6447 31.4224 42.6447 31.4224C42.6447 28.9446 40.6337 26.9335 38.1558 26.9335C38.1558 26.9335 38.1558 26.9335 38.1558 26.9335ZM8.97803 62.8448C8.97803 62.8448 8.97803 65.0893 8.97803 65.0893C8.97803 66.3282 9.9813 67.3338 11.2225 67.3338C11.2225 67.3338 33.6671 67.3338 33.6671 67.3338C34.9083 67.3338 35.9115 66.3282 35.9115 65.0893C35.9115 65.0893 35.9115 62.8448 35.9115 62.8448L8.97803 62.8448L8.97803 62.8448Z" fill="#1E0B36" transform="translate(15.711 2.245)" />
  </g>
</svg>