<?xml version="1.0" encoding="utf-8"?>
<svg width="45" height="45" viewBox="0 0 45 45" fill="none" xmlns="http://www.w3.org/2000/svg">
  <g>
    <path d="M18 36C27.941 36 36 27.9412 36 18C36 8.05887 27.941 0 18 0C8.05887 0 0 8.05887 0 18C0 27.9412 8.05887 36 18 36Z" fill="none" stroke-width="3" stroke="#C6FF33" stroke-linecap="round" stroke-linejoin="round" transform="translate(4.5 4.356)" />
    <path d="M14.4 0C14.4 0 9.234 5.508 9.234 5.508C8.97444 5.78844 8.6598 6.01164 8.30988 6.16464C7.95978 6.31764 7.58196 6.39666 7.2 6.39666C6.81804 6.39666 6.44022 6.31764 6.09012 6.16464C5.7402 6.01164 5.42556 5.78844 5.166 5.508C5.166 5.508 0 0 0 0" fill="none" stroke-width="3" stroke="#C6FF33" stroke-linecap="round" stroke-linejoin="round" transform="translate(15.3 19.782)" />
  </g>
</svg>